<?xml version="1.0" encoding="UTF-8" standalone="no"?>
<svg
   version="1.0"
   width="64"
   height="64"
   viewBox="0 0 504 504"
   id="svg4"
   sodipodi:docname="Chess_tile_rd.svg"
   inkscape:version="1.1.2 (0a00cf5339, 2022-02-04)"
   xmlns:inkscape="http://www.inkscape.org/namespaces/inkscape"
   xmlns:sodipodi="http://sodipodi.sourceforge.net/DTD/sodipodi-0.dtd"
   xmlns="http://www.w3.org/2000/svg"
   xmlns:svg="http://www.w3.org/2000/svg">
  <defs
     id="defs8" />
  <sodipodi:namedview
     id="namedview6"
     pagecolor="#ffffff"
     bordercolor="#111111"
     borderopacity="1"
     inkscape:pageshadow="0"
     inkscape:pageopacity="0"
     inkscape:pagecheckerboard="1"
     showgrid="false"
     inkscape:zoom="11.313709"
     inkscape:cx="19.489631"
     inkscape:cy="30.891727"
     inkscape:window-width="1920"
     inkscape:window-height="1056"
     inkscape:window-x="0"
     inkscape:window-y="0"
     inkscape:window-maximized="1"
     inkscape:current-layer="layer2" />
  <g
     inkscape:groupmode="layer"
     id="layer1"
     inkscape:label="back"
     style="display:inline">
    <ellipse
       style="fill:#ffffff;fill-rule:evenodd;stroke-width:13.1931"
       id="path164"
       cx="120.33199"
       cy="137.70532"
       rx="6.6059122"
       ry="7.8591309" />
    <rect
       style="fill:#ffffff;stroke-width:7.875"
       id="rect395"
       width="262.29013"
       height="16.118164"
       x="118.9091"
       y="130" />
    <ellipse
       style="fill:#ffffff;stroke-width:10.4294"
       id="path419"
       ry="8.9208984"
       rx="9.4421463"
       cy="137.07112"
       cx="380.82251" />
    <ellipse
       style="display:inline;fill:#ffffff;stroke-width:10.4294"
       id="path419-3"
       ry="8.9208984"
       rx="9.4421463"
       cy="175.58069"
       cx="332.19379" />
    <ellipse
       style="display:inline;fill:#ffffff;stroke-width:10.4294"
       id="path419-3-6"
       ry="8.9208984"
       rx="9.4421463"
       cy="175.83398"
       cx="171.52734" />
    <ellipse
       style="display:inline;fill:#ffffff;stroke-width:10.4294"
       id="path419-3-7"
       ry="8.9208984"
       rx="9.4421463"
       cy="324.47461"
       cx="172.26562" />
    <ellipse
       style="display:inline;fill:#ffffff;stroke-width:10.4294"
       id="path419-3-5"
       ry="8.9208984"
       rx="9.4421463"
       cy="370.00195"
       cx="130.30664" />
    <ellipse
       style="display:inline;fill:#ffffff;stroke-width:10.4294"
       id="path419-3-3"
       ry="8.9208984"
       rx="9.4421463"
       cy="411.5918"
       cx="130.30664" />
    <ellipse
       style="display:inline;fill:#ffffff;stroke-width:10.4294"
       id="path419-3-56"
       ry="8.9208984"
       rx="9.4421463"
       cy="411.46875"
       cx="375.16992" />
    <ellipse
       style="display:inline;fill:#ffffff;stroke-width:10.4294"
       id="path419-3-2"
       ry="8.9208984"
       rx="9.4421463"
       cy="370.125"
       cx="373.81641" />
    <ellipse
       style="display:inline;fill:#ffffff;stroke-width:10.4294"
       id="path419-3-9"
       ry="8.9208984"
       rx="9.4421463"
       cy="324.47461"
       cx="331.36523" />
    <rect
       style="fill:#ffffff;stroke-width:7.875"
       id="rect941"
       width="243.27235"
       height="65.081451"
       x="130.51093"
       y="360.21014" />
    <rect
       style="fill:#ffffff;stroke-width:7.875"
       id="rect991"
       width="167.05397"
       height="35.49897"
       x="167.75003"
       y="305.56958" />
    <rect
       style="fill:#ffffff;stroke-width:7.875"
       id="rect993"
       width="161.83354"
       height="36.543056"
       x="170.53427"
       y="160.78944" />
  </g>
  <g
     inkscape:groupmode="layer"
     id="layer2"
     inkscape:label="front"
     sodipodi:insensitive="true"
     style="display:inline">
    <path
       d="M 90,430.5 L 90,412 L 102.5,412 L 115,412 L 115,390.6452 L 115,369.29041 L 136,346.9288 L 157,324.56719 L 157,250.00884 L 157,175.45049 L 132.55624,156.97524 L 108.11248,138.5 L 108.05624,104.75 L 108,71 L 136.5,71 L 165,71 L 165,86 L 165,101 L 191,101 L 217,101 L 217,86 L 217,71 L 252,71 L 287,71 L 287,86 L 287,101 L 313,101 L 339,101 L 339,86 L 339,71 L 367.5,71 L 396,71 L 395.94794,104.75 L 395.89588,138.5 L 371.44945,157 L 347.00303,175.5 L 347.00151,250.19619 L 347,324.89237 L 367.97107,347.19619 L 388.94214,369.5 L 388.97107,390.75 L 389,412 L 401.5,412 L 414,412 L 414,430.5 L 414,449 L 252,449 L 90,449 L 90,430.5 z M 379.73331,417.03383 C 383.68969,413.3479 383.42932,408.61599 379.08666,405.2818 C 377.85933,404.33949 349.06386,404.0564 251.93856,404.0318 C 128.45676,404.00053 126.34217,404.03257 124.26669,405.96617 C 120.31031,409.6521 120.57068,414.38401 124.91334,417.7182 C 126.14067,418.66051 154.93614,418.9436 252.06144,418.9682 C 375.54324,418.99947 377.65783,418.96743 379.73331,417.03383 z M 379.73331,375.03383 C 383.68969,371.3479 383.42932,366.61599 379.08666,363.2818 C 377.85933,362.33949 349.06386,362.0564 251.93856,362.0318 C 128.45676,362.00053 126.34217,362.03257 124.26669,363.96617 C 120.31031,367.6521 120.57068,372.38401 124.91334,375.7182 C 126.14067,376.66051 154.93614,376.9436 252.06144,376.9682 C 375.54324,376.99947 377.65783,376.96743 379.73331,375.03383 z M 337.54545,329.54545 C 340.67373,326.41718 340.67373,322.58282 337.54545,319.45455 L 335.09091,317 L 252,317 L 168.90909,317 L 166.45455,319.45455 C 163.32627,322.58282 163.32627,326.41718 166.45455,329.54545 L 168.90909,332 L 252,332 L 335.09091,332 L 337.54545,329.54545 z M 337.54545,180.54545 C 340.67373,177.41718 340.67373,173.58282 337.54545,170.45455 L 335.09091,168 L 252,168 L 168.90909,168 L 166.45455,170.45455 C 163.32627,173.58282 163.32627,177.41718 166.45455,180.54545 L 168.90909,183 L 252,183 L 335.09091,183 L 337.54545,180.54545 z M 387.54545,142.54545 C 390.67373,139.41718 390.67373,135.58282 387.54545,132.45455 L 385.09091,130 L 252,130 L 118.90909,130 L 116.45455,132.45455 C 113.32627,135.58282 113.32627,139.41718 116.45455,142.54545 L 118.90909,145 L 252,145 L 385.09091,145 L 387.54545,142.54545 z "
       style="fill:#000000"
       id="path2" />
  </g>
</svg>
