<?xml version="1.0" encoding="UTF-8" standalone="no"?>
<!-- Created with Inkscape (http://www.inkscape.org/) -->

<svg
   version="1.0"
   width="64"
   height="64"
   viewBox="-5 -10 450 450"
   id="svg2"
   sodipodi:docname="app_icon.svg"
   inkscape:version="1.1.2 (0a00cf5339, 2022-02-04)"
   xmlns:inkscape="http://www.inkscape.org/namespaces/inkscape"
   xmlns:sodipodi="http://sodipodi.sourceforge.net/DTD/sodipodi-0.dtd"
   xmlns="http://www.w3.org/2000/svg"
   xmlns:svg="http://www.w3.org/2000/svg">
  <sodipodi:namedview
     id="namedview2418"
     pagecolor="#ffffff"
     bordercolor="#111111"
     borderopacity="1"
     inkscape:pageshadow="0"
     inkscape:pageopacity="0"
     inkscape:pagecheckerboard="1"
     showgrid="false"
     inkscape:lockguides="true"
     inkscape:zoom="8.0000004"
     inkscape:cx="7.0624996"
     inkscape:cy="29.937499"
     inkscape:window-width="1832"
     inkscape:window-height="968"
     inkscape:window-x="40"
     inkscape:window-y="40"
     inkscape:window-maximized="0"
     inkscape:current-layer="svg2" />
  <defs
     id="defs4" />
  <rect
     style="fill:#ffffcc;fill-opacity:1;fill-rule:evenodd;stroke-width:6.08924"
     id="rect450"
     width="168.75"
     height="225"
     x="51.25"
     y="-10" />
  <rect
     style="fill:#ffffcc;fill-opacity:1;fill-rule:evenodd;stroke-width:6.08924"
     id="rect450-2"
     width="168.75"
     height="225"
     x="220"
     y="215" />
  <rect
     style="fill:#ffffcc;fill-opacity:1;fill-rule:evenodd;stroke-width:6.08924"
     id="rect450-36"
     width="225"
     height="168.75"
     x="-5"
     y="46.25" />
  <rect
     style="fill:#ffffcc;fill-opacity:1;fill-rule:evenodd;stroke-width:6.08924"
     id="rect450-36-6"
     width="225"
     height="168.75"
     x="220"
     y="215" />
  <rect
     style="fill:#00bb00;fill-opacity:1;fill-rule:evenodd;stroke-width:6.08924"
     id="rect450-36-5"
     width="225"
     height="168.75"
     x="220"
     y="46.25" />
  <rect
     style="fill:#00bb00;fill-opacity:1;fill-rule:evenodd;stroke-width:6.08924"
     id="rect450-36-5-2"
     width="225"
     height="168.75"
     x="-5"
     y="215" />
  <rect
     style="fill:#00bb00;fill-opacity:1;fill-rule:evenodd;stroke-width:6.08924"
     id="rect450-36-5-3"
     width="168.75"
     height="225"
     x="220"
     y="-10" />
  <rect
     style="fill:#00bb00;fill-opacity:1;fill-rule:evenodd;stroke-width:6.08924"
     id="rect450-36-5-3-1"
     width="168.75"
     height="225"
     x="51.25"
     y="215" />
  <circle
     style="fill:#ffffcc;stroke-width:9;fill-opacity:1"
     id="path1014"
     cx="51.25"
     cy="46.25"
     r="56.25" />
  <circle
     style="fill:#ffffcc;fill-opacity:1;stroke-width:9"
     id="path1014-5"
     cx="388.75"
     cy="383.75"
     r="56.25" />
  <circle
     style="fill:#00bb00;fill-opacity:1;stroke-width:9"
     id="path1014-7"
     cx="388.75"
     cy="46.25"
     r="56.25" />
  <circle
     style="fill:#00bb00;fill-opacity:1;stroke-width:9"
     id="path1014-7-9"
     cx="51.25"
     cy="383.75"
     r="56.25" />
  <g
     id="g990"
     transform="matrix(5.901842,0,0,5.901842,33.182031,28.538679)">
    <path
       d="m 34.90418,23.96875 c 0.3125,3.96875 -2.15625,8.71875 -10.75,11.375 -6.46875,3.03125 -8.28125,11.375 -11.625,11.75 -0.44869,-0.633441 -3.75742,-0.296769 0.15008,-5.039553 -3.8586,4.685916 -9.13798,0.545761 -8.15008,-3.585447 0.5,-5.5 6.875,-10.40625 7.375,-14.5 -2,-5.34375 4.5,-9.875 4.5,-9.875 l 0.125,-8.75 8,4.5 4.25,-5 3.25,6.875 c 25,-4.75 26.46875,35.6875 27.5625,47.375 l -39.6875,0.0625 c -2.1875,-9.0625 13.1875,-14.3125 11.75,-27.5625 m -7.125,-21.75 -7.625,4"
       style="fill:#ffffff;fill-opacity:1;stroke:#000000;stroke-width:2;stroke-linecap:round;stroke-linejoin:round;stroke-miterlimit:4;stroke-dashoffset:0;stroke-opacity:1"
       id="path4" />
    <path
       d="m 72.090028,13.333774 c 0.772776,-0.93619 2.018247,-0.946205 2.801093,-0.02252 0.782845,0.92368 0.814965,2.441126 0.07224,3.41277 -0.742727,0.971645 -1.986966,1.039907 -2.79832,0.153523 -0.811355,-0.886384 -0.891234,-2.40121 -0.17965,-3.406878"
       transform="matrix(0.5197388,0.2157579,-0.3834038,0.9235808,-15.89728,-8.613086)"
       style="fill:#000000;fill-opacity:1;stroke:none;stroke-width:1.33305;stroke-linecap:round;stroke-linejoin:round;stroke-miterlimit:4;stroke-dasharray:none;stroke-dashoffset:0;stroke-opacity:1"
       id="path6" />
    <path
       d="m 72.090028,13.333774 c 0.772776,-0.93619 2.018247,-0.946205 2.801093,-0.02252 0.782845,0.92368 0.814965,2.441126 0.07224,3.41277 -0.742727,0.971645 -1.986966,1.039907 -2.79832,0.153523 -0.811355,-0.886384 -0.891234,-2.40121 -0.17965,-3.406878"
       transform="matrix(0.5197388,0.2157579,-0.3834038,0.9235808,-23.897283,10.136914)"
       style="fill:#000000;fill-opacity:1;stroke:none;stroke-width:1.33305;stroke-linecap:round;stroke-linejoin:round;stroke-miterlimit:4;stroke-dasharray:none;stroke-dashoffset:0;stroke-opacity:1"
       id="path8" />
  </g>
</svg>
